<?xml version="1.0" encoding="UTF-8" standalone="no"?>
<svg
   xmlns:dc="http://purl.org/dc/elements/1.1/"
   xmlns:cc="http://creativecommons.org/ns#"
   xmlns:rdf="http://www.w3.org/1999/02/22-rdf-syntax-ns#"
   xmlns:svg="http://www.w3.org/2000/svg"
   xmlns="http://www.w3.org/2000/svg"
   xmlns:sodipodi="http://sodipodi.sourceforge.net/DTD/sodipodi-0.dtd"
   xmlns:inkscape="http://www.inkscape.org/namespaces/inkscape"
   viewBox="0 0 582.76532 161.30293"
   height="161.30293"
   width="582.76532"
   xml:space="preserve"
   id="svg2"
   version="1.1"
   sodipodi:docname="slub_logo_wo.svg"
   inkscape:version="0.92.3 (2405546, 2018-03-11)"><sodipodi:namedview
     pagecolor="#ffffff"
     bordercolor="#666666"
     borderopacity="1"
     objecttolerance="10"
     gridtolerance="10"
     guidetolerance="10"
     inkscape:pageopacity="0"
     inkscape:pageshadow="2"
     inkscape:window-width="1222"
     inkscape:window-height="937"
     id="namedview29"
     showgrid="false"
     inkscape:zoom="1.1637072"
     inkscape:cx="431.38"
     inkscape:cy="38.326932"
     inkscape:window-x="4222"
     inkscape:window-y="292"
     inkscape:window-maximized="0"
     inkscape:current-layer="g12" /><metadata
     id="metadata8"><rdf:RDF><cc:Work
         rdf:about=""><dc:format>image/svg+xml</dc:format><dc:type
           rdf:resource="http://purl.org/dc/dcmitype/StillImage" /><dc:title></dc:title></cc:Work></rdf:RDF></metadata><defs
     id="defs6" /><g
     transform="matrix(1.3333333,0,0,-1.3333333,0,245.95599)"
     id="g10"><g
       transform="scale(0.1)"
       id="g12"><path
         id="path46"
         style="fill:#ed1c24;fill-opacity:1;fill-rule:nonzero;stroke:none"
         d="M 221.094,1844.67 V 1733.62 L 975.945,1627.88 V 829.641 l 111.905,-15.672 v 909.281 l -866.756,121.42"
         inkscape:connector-curvature="0" /><path
         id="path48"
         style="fill:#ed1c24;fill-opacity:1;fill-rule:nonzero;stroke:none"
         d="M 0,756.328 866.758,634.898 V 1544.2 L 0,1665.62 V 756.328"
         inkscape:connector-curvature="0" /><path
         id="path50"
         style="fill:#231f20;fill-opacity:1;fill-rule:nonzero;stroke:none"
         d="m 1878.4,744.371 c -71.32,0 -156.67,10.508 -224.47,39.75 v 167.18 c 17.53,2.336 44.42,3.508 60.79,3.508 17.54,0 45.59,-1.172 61.96,-3.508 l 11.69,-73.66 c 24.55,-8.188 60.8,-12.856 100.55,-12.856 80.67,0 116.91,33.906 116.91,97.031 0,143.814 -347.23,126.274 -347.23,362.434 0,148.48 116.91,231.49 287.6,231.49 60.8,0 132.12,-7.01 185.9,-21.04 v -176.54 c -17.54,-2.34 -45.6,-4.68 -61.96,-4.68 -17.54,0 -47.94,2.34 -65.48,4.68 l -9.35,72.48 c -17.54,2.34 -46.77,4.68 -71.32,4.68 -85.35,0 -113.4,-36.24 -113.4,-94.7 0,-123.93 347.22,-118.08 347.22,-360.093 0,-148.476 -109.89,-236.156 -279.41,-236.156"
         inkscape:connector-curvature="0" /><path
         id="path52"
         style="fill:#231f20;fill-opacity:1;fill-rule:nonzero;stroke:none"
         d="m 2828.21,756.059 h -543.64 c -1.18,16.363 -2.35,38.57 -2.35,54.953 0,16.367 1.17,38.582 2.35,54.945 l 79.5,11.684 v 544.819 l -79.5,11.69 c -1.18,16.37 -2.35,38.58 -2.35,54.95 0,16.36 1.17,38.58 2.35,54.95 h 306.3 c 1.18,-16.37 2.35,-38.59 2.35,-54.95 0,-16.37 -1.17,-38.58 -2.35,-54.95 l -80.66,-11.69 V 875.316 h 181.21 l 9.36,73.653 c 17.53,2.332 47.93,3.496 65.47,3.496 17.53,0 44.42,-1.164 61.96,-3.496 v -192.91"
         inkscape:connector-curvature="0" /><path
         id="path54"
         style="fill:#231f20;fill-opacity:1;fill-rule:nonzero;stroke:none"
         d="m 3629.89,1434.15 -66.64,-11.69 V 1046 c 0,-211.609 -101.71,-301.629 -294.62,-301.629 -202.25,0 -294.63,90.02 -294.63,301.629 v 376.46 l -66.64,11.69 c -1.17,16.37 -2.33,38.58 -2.33,54.95 0,16.36 1.16,38.58 2.33,54.95 h 275.93 c 2.34,-16.37 3.51,-38.59 3.51,-54.95 0,-16.37 -1.17,-38.58 -3.51,-54.95 l -63.13,-11.69 V 1046 c 0,-126.27 37.41,-174.199 150.81,-174.199 113.41,0 153.16,47.929 153.16,174.199 v 376.46 l -63.13,11.69 c -2.35,16.37 -3.51,38.58 -3.51,54.95 0,16.36 1.16,38.58 3.51,54.95 h 268.89 c 2.35,-16.37 3.51,-38.59 3.51,-54.95 0,-16.37 -1.16,-38.58 -3.51,-54.95"
         inkscape:connector-curvature="0" /><path
         id="path56"
         style="fill:#231f20;fill-opacity:1;fill-rule:nonzero;stroke:none"
         d="M 4093.65,1103.29 H 3984.92 V 864.785 c 22.22,-1.172 74.83,-2.344 100.55,-2.344 92.36,0 134.45,38.586 134.45,125.098 0,79.501 -47.94,115.751 -126.27,115.751 z m -16.36,335.53 c -24.56,0 -63.14,-1.16 -92.37,-2.33 v -223.3 h 107.56 c 65.48,0 107.57,37.41 107.57,115.74 0,77.16 -42.09,109.89 -122.76,109.89 z m 3.5,-689.781 c -81.83,0 -223.3,2.34 -318,7.02 -1.17,16.363 -2.34,38.57 -2.34,54.953 0,16.367 1.17,38.582 2.34,54.945 l 79.5,11.684 v 544.819 l -79.5,11.69 c -1.17,16.37 -2.34,38.58 -2.34,54.95 0,16.36 1.17,38.58 2.34,54.95 97.03,4.68 205.76,7.01 306.31,7.01 180.05,0 279.43,-60.79 279.43,-208.1 0,-80.67 -46.77,-141.46 -107.56,-169.53 v -9.34 c 83,-26.89 129.77,-92.37 129.77,-183.563 0,-169.515 -123.93,-231.488 -289.95,-231.488"
         inkscape:connector-curvature="0" /></g></g></svg>