<?xml version="1.0" encoding="UTF-8" standalone="no"?>
<svg
   xmlns:dc="http://purl.org/dc/elements/1.1/"
   xmlns:cc="http://creativecommons.org/ns#"
   xmlns:rdf="http://www.w3.org/1999/02/22-rdf-syntax-ns#"
   xmlns:svg="http://www.w3.org/2000/svg"
   xmlns="http://www.w3.org/2000/svg"
   viewBox="0 0 862.76001 245.96001"
   height="245.96001"
   width="862.76001"
   xml:space="preserve"
   id="svg2"
   version="1.1"><metadata
     id="metadata8"><rdf:RDF><cc:Work
         rdf:about=""><dc:format>image/svg+xml</dc:format><dc:type
           rdf:resource="http://purl.org/dc/dcmitype/StillImage" /></cc:Work></rdf:RDF></metadata><defs
     id="defs6" /><g
     transform="matrix(1.3333333,0,0,-1.3333333,0,245.96)"
     id="g10"><g
       transform="scale(0.1)"
       id="g12"><path
         id="path14"
         style="fill:#231f20;fill-opacity:1;fill-rule:nonzero;stroke:none"
         d="m 2030.82,6.30078 h -75.55 L 1884.3,255.852 c -2.29,8.589 -5.73,24.027 -6.87,39.488 h -4.58 c -1.15,-15.461 -4.58,-30.899 -6.87,-40.059 L 1798.44,6.30078 h -75.55 C 1692.56,130.5 1665.08,262.719 1645.63,388.629 c 22.89,4.012 49.79,6.301 68.68,6.301 l 46.93,-254.129 c 2.29,-13.731 4,-28.61 4,-40.063 h 5.16 c 1.14,11.453 4,26.903 7.44,38.922 l 69.83,252.41 h 65.25 l 66.96,-252.992 c 2.86,-12.008 5.73,-26.887 6.87,-38.34 h 5.15 c 0.57,12.024 2.86,26.332 5.15,38.34 l 49.8,255.852 c 18.31,0 44.64,-2.289 62.95,-6.301 -21.17,-126.488 -49.22,-256.41 -78.98,-382.32822" /><path
         id="path16"
         style="fill:#231f20;fill-opacity:1;fill-rule:nonzero;stroke:none"
         d="M 2193.96,6.30078 V 305.07 h 65.24 V 6.30078 Z m 32.05,339.98022 c -24.61,0 -36.63,18.309 -36.63,38.348 0,20.031 12.02,39.492 37.2,39.492 25.18,0 37.2,-18.883 37.2,-39.492 0,-20.598 -12.59,-38.348 -37.77,-38.348" /><path
         id="path18"
         style="fill:#231f20;fill-opacity:1;fill-rule:nonzero;stroke:none"
         d="m 2512.19,239.828 c -6.87,1.711 -17.75,2.863 -27.48,2.863 -24.04,0 -41.21,-5.73 -60.1,-22.902 V 6.30078 h -65.24 V 302.789 c 18.31,2.281 44.64,4 65.24,4 v -38.348 h 3.44 c 29.76,38.93 49.22,42.348 68.11,42.348 5.72,0 14.88,-1.141 21.75,-3.418 0,-22.332 -2.29,-45.801 -5.72,-67.543" /><path
         id="path20"
         style="fill:#231f20;fill-opacity:1;fill-rule:nonzero;stroke:none"
         d="m 2841.27,371.469 c -5.72,1.14 -21.75,1.722 -29.76,1.722 -23.47,0 -32.05,-11.461 -32.05,-36.07 V 305.07 h 65.24 c 0,-18.89 -1.71,-38.351 -4.57,-57.242 h -60.67 V 6.30078 h -65.25 V 247.828 h -34.34 v 57.242 h 34.34 v 26.899 c 0,62.961 44.07,100.16 96.15,100.16 11.45,0 28.05,-1.141 34.92,-2.277 0,-19.473 -1.15,-38.93 -4.01,-58.383" /><path
         id="path22"
         style="fill:#231f20;fill-opacity:1;fill-rule:nonzero;stroke:none"
         d="m 3078.79,337.699 c -22.89,0 -35.49,16.02 -35.49,36.629 0,20.031 12.02,37.203 36.07,37.203 22.89,0 34.91,-16.601 34.91,-37.203 0,-21.18 -12.02,-36.629 -35.49,-36.629 z m -107.03,0 c -22.89,0 -34.91,16.02 -34.91,36.629 0,20.031 11.45,37.203 35.49,37.203 23.47,0 35.48,-16.601 35.48,-37.203 0,-21.18 -12.59,-36.629 -36.06,-36.629 z M 3078.79,6.30078 V 32.0508 h -3.44 C 3048.46,9.73828 3022.7,0.578125 2993.52,0.578125 c -45.8,0 -86.43,23.460975 -86.43,92.152375 V 302.789 c 18.89,2.859 44.64,4 65.25,4 V 100.172 c 0,-26.9103 12.02,-41.7931 48.07,-41.7931 22.32,0 41.21,5.7305 58.38,15.4609 V 302.789 c 18.89,2.859 44.65,4 65.25,4 V 6.30078 h -65.25" /><path
         id="path24"
         style="fill:#231f20;fill-opacity:1;fill-rule:nonzero;stroke:none"
         d="M 3416.49,6.30078 V 212.922 c 0,23.469 -7.44,40.066 -44.63,40.066 -24.62,0 -44.08,-6.867 -62.4,-19.457 V 6.30078 h -65.24 V 427.559 c 18.31,2.293 44.64,4.57 65.24,4.57 V 277.02 h 3.44 c 27.47,24.609 52.08,33.769 82.42,33.769 50.94,0 86.43,-27.469 86.43,-91.57 V 6.30078 h -65.26" /><path
         id="path26"
         style="fill:#231f20;fill-opacity:1;fill-rule:nonzero;stroke:none"
         d="m 3733.01,239.828 c -6.87,1.711 -17.75,2.863 -27.47,2.863 -24.05,0 -41.21,-5.73 -60.1,-22.902 V 6.30078 H 3580.2 V 302.789 c 18.31,2.281 44.63,4 65.24,4 v -38.348 h 3.44 c 29.75,38.93 49.22,42.348 68.1,42.348 5.73,0 14.89,-1.141 21.75,-3.418 0,-22.332 -2.28,-45.801 -5.72,-67.543" /><path
         id="path28"
         style="fill:#231f20;fill-opacity:1;fill-rule:nonzero;stroke:none"
         d="m 3856.07,183.73 h 103.6 c 0.57,3.442 0.57,12.59 0.57,16.032 0,42.347 -16.6,61.238 -49.79,61.238 -34.35,0 -53.8,-22.891 -54.38,-77.27 z m 167.71,-45.789 H 3855.5 v -4 c 0,-48.6519 15.46,-71.5504 72.12,-71.5504 26.9,0 61.24,8.0078 78.98,18.3203 6.3,-17.1718 12.02,-41.2226 14.88,-61.25 -24.6,-12.01949 -66.96,-18.882775 -95.01,-18.882775 -91.57,0 -142.51,50.371075 -142.51,151.101875 0,107.601 53.8,159.109 127.63,159.109 78.42,0 114.47,-49.219 114.47,-127.629 0,-12.59 -0.57,-31.48 -2.28,-45.219" /><path
         id="path30"
         style="fill:#231f20;fill-opacity:1;fill-rule:nonzero;stroke:none"
         d="M 4279.05,6.30078 V 212.922 c 0,25.75 -10.3,40.066 -44.64,40.066 -23.46,0 -43.5,-6.297 -62.39,-19.457 V 6.30078 h -65.24 V 302.789 c 18.31,2.281 44.64,4 65.24,4 V 277.02 h 3.44 c 29.75,27.468 54.94,33.769 82.42,33.769 46.36,0 86.43,-23.461 86.43,-92.148 V 6.30078 h -65.26" /><path
         id="path32"
         style="fill:#231f20;fill-opacity:1;fill-rule:nonzero;stroke:none"
         d="m 4927.53,6.30078 h -75.55 L 4781.01,255.852 c -2.29,8.589 -5.73,24.027 -6.87,39.488 h -4.58 c -1.14,-15.461 -4.58,-30.899 -6.86,-40.059 L 4695.16,6.30078 h -75.55 C 4589.27,130.5 4561.8,262.719 4542.33,388.629 c 22.9,4.012 49.8,6.301 68.69,6.301 l 46.93,-254.129 c 2.29,-13.731 4.01,-28.61 4.01,-40.063 h 5.15 c 1.14,11.453 4,26.903 7.44,38.922 l 69.83,252.41 h 65.25 l 66.96,-252.992 c 2.86,-12.008 5.72,-26.887 6.88,-38.34 h 5.14 c 0.58,12.024 2.86,26.332 5.15,38.34 l 49.8,255.852 c 18.32,0 44.64,-2.289 62.96,-6.301 -21.18,-126.488 -49.23,-256.41 -78.99,-382.32822" /><path
         id="path34"
         style="fill:#231f20;fill-opacity:1;fill-rule:nonzero;stroke:none"
         d="M 5085.01,6.30078 V 305.07 h 65.24 V 6.30078 Z m 32.05,339.98022 c -24.61,0 -36.63,18.309 -36.63,38.348 0,20.031 12.02,39.492 37.2,39.492 25.18,0 37.2,-18.883 37.2,-39.492 0,-20.598 -12.58,-38.348 -37.77,-38.348" /><path
         id="path36"
         style="fill:#231f20;fill-opacity:1;fill-rule:nonzero;stroke:none"
         d="m 5319.67,0.578125 c -32.05,0 -67.54,7.441405 -91.57,20.601575 4.58,21.1797 8.58,38.9219 15.44,58.9609 23.47,-12.6015 58.96,-20.039 87.58,-20.039 25.76,0 36.06,11.4375 36.06,30.3398 0,49.7966 -135.65,25.1796 -135.65,124.1996 0,64.679 56.09,96.148 120.19,96.148 19.46,0 49.23,-2.859 72.12,-9.16 -0.57,-17.731 -4.58,-39.488 -9.15,-58.938 -20.61,6.86 -54.38,11.438 -79,11.438 -24.03,0 -35.48,-10.879 -35.48,-31.481 0,-46.359 134.51,-22.32 134.51,-129.3472 0,-64.6719 -55.52,-92.722675 -115.05,-92.722675" /><path
         id="path38"
         style="fill:#231f20;fill-opacity:1;fill-rule:nonzero;stroke:none"
         d="m 5581.24,0.578125 c -32.05,0 -67.54,7.441405 -91.57,20.601575 4.58,21.1797 8.58,38.9219 15.45,58.9609 23.46,-12.6015 58.95,-20.039 87.58,-20.039 25.75,0 36.05,11.4375 36.05,30.3398 0,49.7966 -135.64,25.1796 -135.64,124.1996 0,64.679 56.08,96.148 120.18,96.148 19.46,0 49.23,-2.859 72.12,-9.16 -0.57,-17.731 -4.58,-39.488 -9.15,-58.938 -20.61,6.86 -54.38,11.438 -78.99,11.438 -24.04,0 -35.48,-10.879 -35.48,-31.481 0,-46.359 134.5,-22.32 134.5,-129.3472 0,-64.6719 -55.52,-92.722675 -115.05,-92.722675" /><path
         id="path40"
         style="fill:#231f20;fill-opacity:1;fill-rule:nonzero;stroke:none"
         d="m 5825.64,183.73 h 103.6 c 0.57,3.442 0.57,12.59 0.57,16.032 0,42.347 -16.6,61.238 -49.79,61.238 -34.35,0 -53.8,-22.891 -54.38,-77.27 z m 167.71,-45.789 h -168.28 v -4 c 0,-48.6519 15.46,-71.5504 72.12,-71.5504 26.9,0 61.24,8.0078 78.98,18.3203 6.3,-17.1718 12.02,-41.2226 14.88,-61.25 -24.6,-12.01949 -66.96,-18.882775 -95.01,-18.882775 -91.57,0 -142.51,50.371075 -142.51,151.101875 0,107.601 53.8,159.109 127.63,159.109 78.42,0 114.47,-49.219 114.47,-127.629 0,-12.59 -0.57,-31.48 -2.28,-45.219" /><path
         id="path42"
         style="fill:#231f20;fill-opacity:1;fill-rule:nonzero;stroke:none"
         d="M 6248.62,6.30078 V 212.922 c 0,25.75 -10.3,40.066 -44.64,40.066 -23.46,0 -43.5,-6.297 -62.39,-19.457 V 6.30078 h -65.24 V 302.789 c 18.31,2.281 44.64,4 65.24,4 V 277.02 h 3.44 c 29.76,27.468 54.94,33.769 82.42,33.769 46.36,0 86.43,-23.461 86.43,-92.148 V 6.30078 h -65.26" /><path
         id="path44"
         style="fill:#231f20;fill-opacity:1;fill-rule:nonzero;stroke:none"
         d="m 6434.07,0 c -21.75,0 -37.2,12.0195 -37.2,37.7891 0,24.6015 16.02,37.7695 37.2,37.7695 20.03,0 36.63,-13.168 36.63,-37.7695 C 6470.7,12.0195 6454.1,0 6434.07,0" /><path
         id="path46"
         style="fill:#ed1c24;fill-opacity:1;fill-rule:nonzero;stroke:none"
         d="M 221.094,1844.67 V 1733.62 L 975.945,1627.88 V 829.641 l 111.905,-15.672 v 909.281 l -866.756,121.42" /><path
         id="path48"
         style="fill:#ed1c24;fill-opacity:1;fill-rule:nonzero;stroke:none"
         d="M 0,756.328 866.758,634.898 V 1544.2 L 0,1665.62 V 756.328" /><path
         id="path50"
         style="fill:#231f20;fill-opacity:1;fill-rule:nonzero;stroke:none"
         d="m 1878.4,744.371 c -71.32,0 -156.67,10.508 -224.47,39.75 v 167.18 c 17.53,2.336 44.42,3.508 60.79,3.508 17.54,0 45.59,-1.172 61.96,-3.508 l 11.69,-73.66 c 24.55,-8.188 60.8,-12.856 100.55,-12.856 80.67,0 116.91,33.906 116.91,97.031 0,143.814 -347.23,126.274 -347.23,362.434 0,148.48 116.91,231.49 287.6,231.49 60.8,0 132.12,-7.01 185.9,-21.04 v -176.54 c -17.54,-2.34 -45.6,-4.68 -61.96,-4.68 -17.54,0 -47.94,2.34 -65.48,4.68 l -9.35,72.48 c -17.54,2.34 -46.77,4.68 -71.32,4.68 -85.35,0 -113.4,-36.24 -113.4,-94.7 0,-123.93 347.22,-118.08 347.22,-360.093 0,-148.476 -109.89,-236.156 -279.41,-236.156" /><path
         id="path52"
         style="fill:#231f20;fill-opacity:1;fill-rule:nonzero;stroke:none"
         d="m 2828.21,756.059 h -543.64 c -1.18,16.363 -2.35,38.57 -2.35,54.953 0,16.367 1.17,38.582 2.35,54.945 l 79.5,11.684 v 544.819 l -79.5,11.69 c -1.18,16.37 -2.35,38.58 -2.35,54.95 0,16.36 1.17,38.58 2.35,54.95 h 306.3 c 1.18,-16.37 2.35,-38.59 2.35,-54.95 0,-16.37 -1.17,-38.58 -2.35,-54.95 l -80.66,-11.69 V 875.316 h 181.21 l 9.36,73.653 c 17.53,2.332 47.93,3.496 65.47,3.496 17.53,0 44.42,-1.164 61.96,-3.496 v -192.91" /><path
         id="path54"
         style="fill:#231f20;fill-opacity:1;fill-rule:nonzero;stroke:none"
         d="m 3629.89,1434.15 -66.64,-11.69 V 1046 c 0,-211.609 -101.71,-301.629 -294.62,-301.629 -202.25,0 -294.63,90.02 -294.63,301.629 v 376.46 l -66.64,11.69 c -1.17,16.37 -2.33,38.58 -2.33,54.95 0,16.36 1.16,38.58 2.33,54.95 h 275.93 c 2.34,-16.37 3.51,-38.59 3.51,-54.95 0,-16.37 -1.17,-38.58 -3.51,-54.95 l -63.13,-11.69 V 1046 c 0,-126.27 37.41,-174.199 150.81,-174.199 113.41,0 153.16,47.929 153.16,174.199 v 376.46 l -63.13,11.69 c -2.35,16.37 -3.51,38.58 -3.51,54.95 0,16.36 1.16,38.58 3.51,54.95 h 268.89 c 2.35,-16.37 3.51,-38.59 3.51,-54.95 0,-16.37 -1.16,-38.58 -3.51,-54.95" /><path
         id="path56"
         style="fill:#231f20;fill-opacity:1;fill-rule:nonzero;stroke:none"
         d="M 4093.65,1103.29 H 3984.92 V 864.785 c 22.22,-1.172 74.83,-2.344 100.55,-2.344 92.36,0 134.45,38.586 134.45,125.098 0,79.501 -47.94,115.751 -126.27,115.751 z m -16.36,335.53 c -24.56,0 -63.14,-1.16 -92.37,-2.33 v -223.3 h 107.56 c 65.48,0 107.57,37.41 107.57,115.74 0,77.16 -42.09,109.89 -122.76,109.89 z m 3.5,-689.781 c -81.83,0 -223.3,2.34 -318,7.02 -1.17,16.363 -2.34,38.57 -2.34,54.953 0,16.367 1.17,38.582 2.34,54.945 l 79.5,11.684 v 544.819 l -79.5,11.69 c -1.17,16.37 -2.34,38.58 -2.34,54.95 0,16.36 1.17,38.58 2.34,54.95 97.03,4.68 205.76,7.01 306.31,7.01 180.05,0 279.43,-60.79 279.43,-208.1 0,-80.67 -46.77,-141.46 -107.56,-169.53 v -9.34 c 83,-26.89 129.77,-92.37 129.77,-183.563 0,-169.515 -123.93,-231.488 -289.95,-231.488" /></g></g></svg>